<?xml version="1.0" encoding="UTF-8" standalone="no"?>
<!-- Created with Inkscape (http://www.inkscape.org/) -->

<svg
   width="99.748177mm"
   height="21.468004mm"
   viewBox="0 0 99.748177 21.468004"
   version="1.1"
   id="svg1"
   inkscape:version="1.3 (0e150ed6c4, 2023-07-21)"
   sodipodi:docname="default.svg"
   xml:space="preserve"
   xmlns:inkscape="http://www.inkscape.org/namespaces/inkscape"
   xmlns:sodipodi="http://sodipodi.sourceforge.net/DTD/sodipodi-0.dtd"
   xmlns="http://www.w3.org/2000/svg"
   xmlns:svg="http://www.w3.org/2000/svg"><sodipodi:namedview
     id="namedview1"
     pagecolor="#494949"
     bordercolor="#000000"
     borderopacity="0"
     inkscape:showpageshadow="2"
     inkscape:pageopacity="0.0"
     inkscape:pagecheckerboard="0"
     inkscape:deskcolor="#494949"
     inkscape:document-units="mm"
     inkscape:zoom="0.26740451"
     inkscape:cx="557.20825"
     inkscape:cy="1707.1514"
     inkscape:window-width="1920"
     inkscape:window-height="1027"
     inkscape:window-x="-8"
     inkscape:window-y="48"
     inkscape:window-maximized="1"
     inkscape:current-layer="layer1" /><defs
     id="defs1" /><g
     inkscape:label="Layer 1"
     inkscape:groupmode="layer"
     id="layer1"
     transform="translate(4131.0709,-727.53117)"><path
       style="fill:#ececec"
       d="m -4131.0704,738.482 c -1e-4,-5.71169 -7e-4,-10.47419 0,-10.58333 0,-0.23836 5.4377,-0.41509 6.285,-0.20421 l 0.5953,0.14814 v 10.44601 c 0,8.16931 -0.072,10.45053 -0.3307,10.4668 -0.1819,0.0115 -1.7296,0.0412 -3.4394,0.0661 l -3.1087,0.0453 z m 7.7388,10.30035 -0.5953,-0.0846 v -10.44094 c 0,-9.23579 0.048,-10.45931 0.4147,-10.60007 0.2281,-0.0875 0.5271,-0.0467 0.6645,0.0908 0.1507,0.15072 0.2224,4.39086 0.1807,10.68462 l -0.069,10.43473 z m 1.1131,-0.11452 c -0.07,-0.18225 -0.096,-4.97452 -0.058,-10.64948 l 0.069,-10.31812 h 0.6615 0.6614 l 0.069,10.4335 c 0.071,10.73753 0.062,10.84947 -0.9375,10.86141 -0.1864,0.002 -0.3962,-0.14506 -0.4661,-0.32731 z m 2.128,0.11076 c -0.073,-0.0727 -0.1322,-4.81904 -0.1322,-10.54743 0,-9.21246 0.048,-10.43362 0.4147,-10.57437 0.228,-0.0875 0.523,-0.0507 0.6556,0.0818 0.136,0.13609 0.2486,4.7778 0.2587,10.66668 0.018,10.32003 0.012,10.42614 -0.5234,10.46561 -0.2977,0.0219 -0.6007,-0.0196 -0.6734,-0.0923 z m 2.8758,-0.17128 c -0.057,-0.14896 -0.073,-4.914 -0.035,-10.58896 l 0.069,-10.31812 h 1.7198 1.7198 l 0.075,3.11392 c 0.062,2.5994 0.01,3.13962 -0.3308,3.26945 -0.5952,0.2284 -0.6031,7.11015 -0.01,7.33835 0.2967,0.11387 0.3969,0.58838 0.3969,1.88039 0,0.97568 0.1152,1.7281 0.2646,1.7281 0.1512,0 0.2645,-0.79375 0.2645,-1.85208 0,-1.05834 -0.1133,-1.85209 -0.2645,-1.85209 -0.1629,0 -0.2646,-1.32291 -0.2646,-3.43958 0,-2.92443 0.061,-3.43958 0.4085,-3.43958 0.2246,0 0.3891,-0.14883 0.3655,-0.33073 -0.024,-0.1819 -0.029,-1.72972 -0.012,-3.43959 0.026,-2.5731 0.1,-3.10885 0.4282,-3.10885 0.3322,0 0.3969,0.55496 0.3969,3.40719 0,2.70583 -0.082,3.47498 -0.3969,3.73656 -0.2511,0.20838 -0.3969,0.79212 -0.3969,1.58905 0,1.13069 0.067,1.27252 0.6559,1.38506 l 0.6559,0.12538 0.072,-5.05548 c 0.061,-4.28548 0.1322,-5.05547 0.4686,-5.05547 0.3259,0 0.4102,0.55339 0.4713,3.09531 l 0.074,3.09532 1.3808,0.0797 1.3808,0.0797 0.077,1.87947 c 0.074,1.81836 0.097,1.87558 0.704,1.7596 1.3899,-0.26569 1.5314,0.0898 1.4844,3.73032 l -0.043,3.34624 h 0.6698 c 0.809,0 1.0112,0.59823 0.8938,2.64448 l -0.082,1.42559 -1.1907,0.006 -1.1906,0.006 -0.074,-3.48194 -0.074,-3.48194 -1.2492,-0.0803 -1.2492,-0.0803 -0.078,-1.78594 c -0.074,-1.69849 -0.1101,-1.78594 -0.7276,-1.78594 h -0.6494 v 3.42644 c 0,2.71379 -0.08,3.47097 -0.3826,3.64055 -0.2576,0.14414 -0.4089,0.77529 -0.463,1.93137 -0.062,1.31433 -0.1736,1.71727 -0.4773,1.71727 -0.3059,0 -0.4149,-0.4096 -0.4751,-1.78594 -0.043,-0.98227 -0.1919,-1.78594 -0.3308,-1.78594 -0.1388,0 -0.2528,0.80367 -0.2531,1.78594 l -7e-4,1.78594 -2.1475,0.006 c -1.226,0.003 -2.1922,-0.11059 -2.2515,-0.26522 z m 2.5482,-5.42895 c 0,-1.46991 -0.082,-1.85209 -0.3968,-1.85209 -0.3332,0 -0.3969,-0.57326 -0.3969,-3.57187 0,-2.20486 -0.1013,-3.57188 -0.2646,-3.57188 -0.1638,0 -0.2646,1.41111 -0.2646,3.70417 0,2.29305 0.1008,3.70417 0.2646,3.70417 0.1493,0 0.2646,0.74965 0.2646,1.71979 0,1.35231 0.085,1.71979 0.3969,1.71979 0.315,0 0.3968,-0.38218 0.3968,-1.85208 z m 4.117,5.61625 c -0.082,-0.0815 -0.1482,-0.90226 -0.1482,-1.82389 v -1.6757 l 1.4552,-0.0397 c 0.8004,-0.0218 1.604,-0.0516 1.7859,-0.0661 0.2356,-0.0188 0.3308,0.50503 0.3308,1.8196 v 1.84607 l -1.6378,0.044 c -0.9007,0.0242 -1.7044,-0.0227 -1.7859,-0.10422 z m 9.1122,-1.51521 c 0,-1.35232 -0.085,-1.71979 -0.3969,-1.71979 -0.3086,0 -0.3968,0.35277 -0.3968,1.5875 0,1.41413 -0.058,1.5875 -0.5322,1.5875 -0.5255,0 -0.5314,-0.13347 -0.4631,-10.51719 l 0.069,-10.51719 h 0.9261 c 0.8914,0 0.9288,0.0396 1.0014,1.05833 0.1247,1.75064 0.4194,1.95442 0.574,0.39688 0.1044,-1.05296 0.2541,-1.45521 0.5412,-1.45521 0.2872,0 0.4368,0.40225 0.5413,1.45521 0.1545,1.55754 0.4492,1.35376 0.574,-0.39688 0.062,-0.86825 0.1823,-1.07351 0.6707,-1.14288 l 0.5953,-0.0845 v 5.04549 c 0,3.02623 0.101,5.04549 0.2525,5.04549 0.1388,0 0.2877,-0.80368 0.3307,-1.78594 0.076,-1.72936 0.1013,-1.78859 0.8058,-1.86966 0.7158,-0.0824 0.7276,-0.11363 0.7276,-1.91823 v -1.83451 h 0.7938 c 0.7734,0 0.7937,-0.0331 0.7937,-1.28936 v -1.28936 l 1.1907,-0.0239 1.1906,-0.0239 v 1.30822 c 0,1.17478 0.067,1.32516 0.6615,1.47424 0.6181,0.15513 0.6614,0.2754 0.6614,1.83507 0,0.99188 0.1197,1.70894 0.2949,1.76736 0.2108,0.0703 0.2394,1.20778 0.1003,3.9908 -0.1781,3.5636 -0.2366,3.8925 -0.6918,3.8925 -0.4355,0 -0.4971,0.21327 -0.4971,1.71979 0,1.65806 0.024,1.71979 0.6614,1.71979 0.6403,0 0.6615,0.0573 0.6615,1.78594 l -1e-4,1.78594 -2.5796,-0.0222 -2.5797,-0.0222 -0.071,-5.42135 -0.071,-5.42135 -0.7886,0.11573 c -0.7725,0.11339 -0.7885,0.14725 -0.7885,1.6732 0,0.86193 0.1182,1.55747 0.2646,1.55747 0.1522,0 0.2646,0.82021 0.2646,1.93146 0,1.0623 0.1255,2.05698 0.2789,2.2104 0.1534,0.15341 0.2427,0.9809 0.1985,1.83885 l -0.081,1.55992 h -1.1907 -1.1906 l -0.074,-3.34459 c -0.069,-3.12791 -0.1093,-3.35387 -0.6214,-3.48776 -0.5195,-0.13588 -0.5427,-0.0531 -0.4553,1.6248 0.09,1.7294 0.077,1.76969 -0.5877,1.84708 -0.6421,0.0747 -0.6764,0.15549 -0.618,1.45521 0.059,1.30256 -0.2007,2.03755 -0.7189,2.03755 -0.1277,0 -0.2322,-0.77391 -0.2322,-1.71979 z m 9.2604,-3.95314 c 0,-1.08282 0.1191,-2.04234 0.2646,-2.13228 0.1455,-0.0899 0.2646,-0.98993 0.2646,-1.99999 0,-1.63222 0.056,-1.83647 0.5061,-1.83647 0.4335,0 0.5,-0.18043 0.4631,-1.25677 -0.035,-1.01205 -0.1462,-1.28469 -0.5723,-1.40015 -0.4571,-0.12384 -0.5398,-0.40338 -0.6069,-2.05052 -0.059,-1.45776 -0.1686,-1.90714 -0.4631,-1.90714 -0.2945,0 -0.3852,0.374 -0.3852,1.5875 0,0.88194 0.1176,1.5875 0.2645,1.5875 0.1546,0 0.2646,0.88715 0.2646,2.13228 0,1.35415 -0.097,2.07261 -0.2646,1.96876 -0.1715,-0.10605 -0.2645,1.14378 -0.2645,3.55626 0,2.30347 0.1007,3.71978 0.2645,3.71978 0.1527,0 0.2646,-0.83264 0.2646,-1.96876 z m -6.8791,-5.30728 c 0,-2.99861 -0.064,-3.57187 -0.3969,-3.57187 -0.3113,0 -0.4087,-0.41385 -0.4516,-1.91823 -0.033,-1.15412 -0.112,-0.4427 -0.1984,1.78593 l -0.1438,3.70417 -0.9921,0.0821 -0.9922,0.0821 v 1.55832 1.55833 l 1.5213,0.0955 c 0.8368,0.0525 1.5511,0.11798 1.5875,0.1455 0.036,0.0275 0.066,-1.55732 0.066,-3.52185 z m 9.7895,0.2236 v -10.70979 l 0.7277,0.0837 0.7276,0.0837 0.1452,3.175 0.1452,3.175 0.053,-3.24115 0.053,-3.24114 h 0.6615 c 0.6282,0 0.6614,0.0759 0.6614,1.50812 0,1.77523 0.4523,1.63046 0.5787,-0.1852 l 0.083,-1.19063 h 1.4552 1.4552 l 0.079,1.36157 c 0.067,1.14504 0.1717,1.38641 0.6615,1.51774 0.9539,0.25579 0.9793,0.22231 0.9793,-1.29181 v -1.45521 h 1.5875 1.5875 v 1.45521 c 0,1.37583 -0.036,1.45521 -0.6614,1.45521 -0.6505,0 -0.6615,0.0353 -0.6615,2.11667 v 2.11666 h 1.3229 1.3229 v 1.3073 c 0,0.71902 0.1191,1.38089 0.2646,1.47083 0.1624,0.10038 0.2646,2.2517 0.2646,5.57186 v 5.40835 h -1.7277 -1.7277 l 0.074,-3.37344 0.074,-3.37344 0.8599,-0.0829 0.8599,-0.0829 v -1.95648 -1.95648 l -2.0505,-0.0773 -2.0505,-0.0773 -0.08,-1.38906 c -0.1074,-1.86478 -0.7404,-1.92311 -0.696,-0.0641 0.019,0.81506 -0.104,1.43744 -0.3207,1.6173 -0.5257,0.43626 -0.6078,-0.0112 -0.686,-3.73598 l -0.069,-3.30729 -0.8599,-0.0829 -0.8599,-0.0829 v 1.60427 c 0,1.53482 0.029,1.60426 0.6614,1.60426 h 0.6615 v 5.95312 c 0,5.72596 -0.02,5.95313 -0.516,5.95313 -0.4425,0 -0.5272,0.21649 -0.5953,1.52135 -0.06,1.14066 -0.1786,1.52136 -0.4762,1.52136 -0.2976,0 -0.4167,-0.3807 -0.4762,-1.52136 -0.078,-1.49035 -0.095,-1.52135 -0.8599,-1.52135 h -0.7806 v -2.11667 -2.11666 h 0.7426 c 0.7233,0 0.7417,-0.0359 0.7113,-1.38907 -0.039,-1.71725 0.1205,-2.61904 0.4285,-2.42869 0.1289,0.0797 0.2343,-0.51705 0.2343,-1.326 0,-1.13101 -0.092,-1.47083 -0.3969,-1.47083 -0.312,0 -0.3969,0.36748 -0.3969,1.71979 v 1.7198 h -0.7937 -0.7938 v 5.15937 c 0,3.94032 -0.078,5.16416 -0.3307,5.17962 -0.1819,0.0111 -0.5391,0.0601 -0.7937,0.10888 -0.4348,0.0832 -0.4631,-0.56398 -0.4631,-10.62115 z m 7.4084,7.31703 c 0,-1.94028 -0.1029,-3.175 -0.2646,-3.175 -0.1557,0 -0.2646,-0.93004 -0.2646,-2.26095 v -2.26095 l 0.9922,0.1649 c 1.687,0.28036 1.6536,0.23518 1.6536,2.24033 0,1.41698 -0.096,1.9055 -0.3968,2.02099 -0.2907,0.11153 -0.3969,0.56961 -0.3969,1.71148 0,1.20956 0.089,1.5592 0.3969,1.5592 0.3087,0 0.3968,0.35277 0.3968,1.5875 v 1.5875 h -1.0583 -1.0583 z m 6.8791,-7.28813 v -10.46314 l 1.786,0.0782 1.7859,0.0782 0.045,1.52136 c 0.044,1.51479 0.041,1.52135 -0.7276,1.52135 -0.7667,0 -0.7723,0.0114 -0.7723,1.57229 v 1.57229 l 1.1245,0.0814 1.1245,0.0814 0.078,1.91823 c 0.064,1.58647 0.01,1.91823 -0.3307,1.91823 -0.2247,0 -0.4149,0.14883 -0.4227,0.33073 -0.1068,2.48188 0.1003,6.96731 0.3282,7.10812 0.1571,0.0971 0.2864,0.81462 0.2873,1.5944 0,1.33519 -0.039,1.42267 -0.6967,1.50151 l -0.6983,0.0837 v -3.16426 c 0,-2.56861 -0.075,-3.19294 -0.3969,-3.31656 -0.3042,-0.11672 -0.3969,-0.61778 -0.3969,-2.14498 0,-1.94913 -0.014,-1.99268 -0.6614,-1.99268 h -0.6615 v 3.68577 c 0,3.62083 0.011,3.68725 0.5953,3.77031 0.5274,0.0749 0.6044,0.2582 0.6747,1.6059 l 0.079,1.52136 h -1.0715 -1.0716 z m 2.069,-2.69989 c 0.069,-0.48485 -0.042,-0.59532 -0.5953,-0.59532 -0.5537,0 -0.6799,0.12616 -0.6799,0.67986 0,0.55371 0.1105,0.66417 0.5953,0.59532 0.3826,-0.0543 0.6255,-0.29729 0.6799,-0.67986 z m 3.2227,11.70781 c 0,-1.11713 0.092,-1.45521 0.3969,-1.45521 0.3047,0 0.3969,0.33808 0.3969,1.45521 0,1.11713 -0.092,1.45521 -0.3969,1.45521 -0.3047,0 -0.3969,-0.33808 -0.3969,-1.45521 z m 3.9688,-0.13229 v -1.5875 h -0.7938 -0.7937 v -1.7198 -1.71979 h 0.7937 0.7938 v -3.70416 c 0,-3.11621 -0.063,-3.70417 -0.3969,-3.70417 -0.3153,0 -0.3969,-0.38413 -0.3969,-1.86966 v -1.86966 l 0.7276,0.0837 c 0.6888,0.0793 0.7319,0.16487 0.807,1.60508 0.044,0.83674 0.1924,1.52135 0.3307,1.52135 0.3073,0 0.3377,-2.96943 0.034,-3.32052 -0.1196,-0.13824 -0.1676,-0.87643 -0.1067,-1.64042 l 0.1107,-1.38906 h 1.2974 1.2973 v 3.15939 c 0,1.82085 0.1121,3.22866 0.2646,3.3229 0.1455,0.0899 0.2646,1.04947 0.2646,2.13229 0,1.57362 -0.08,1.96876 -0.3969,1.96876 -0.315,0 -0.3969,-0.38218 -0.3969,-1.85209 0,-1.40668 -0.089,-1.85208 -0.3685,-1.85208 -0.5179,0 -0.6898,0.59704 -0.6898,2.39627 v 1.55925 l -0.7937,-0.15875 -0.7938,-0.15875 v 1.88516 c 0,1.70876 0.05,1.88515 0.5292,1.88515 0.4749,0 0.5291,0.17639 0.5291,1.71979 v 1.7198 h 0.7938 0.7937 v 1.5875 1.5875 h -1.7197 -1.7198 z m 2.9104,-14.71939 c 0,-1.49869 -0.06,-1.71208 -0.463,-1.63546 -0.3671,0.0699 -0.4798,0.41137 -0.5436,1.6485 -0.054,1.0433 0.03,1.62849 0.2519,1.76591 0.5907,0.36508 0.7547,-0.0214 0.7547,-1.77895 z m 1.8521,5.85584 v -10.45104 h 2.2489 2.249 v 1.33122 c 0,0.93923 0.1168,1.37607 0.3969,1.48352 0.2988,0.11467 0.3968,0.59587 0.3968,1.94776 0,1.3519 -0.098,1.8331 -0.3968,1.94777 -0.2968,0.11386 -0.3969,0.58838 -0.3969,1.88039 0,1.35969 -0.085,1.72809 -0.3969,1.72809 -0.315,0 -0.3969,-0.38217 -0.3969,-1.85208 0,-1.6757 -0.05,-1.85208 -0.5291,-1.85208 -0.4788,0 -0.5292,0.17638 -0.5292,1.85208 0,1.46991 -0.082,1.85208 -0.3969,1.85208 -0.315,0 -0.3969,-0.38217 -0.3969,-1.85208 0,-1.6757 -0.05,-1.85208 -0.5291,-1.85208 -0.4795,0 -0.5292,0.17638 -0.5292,1.87685 0,1.65434 0.063,1.89326 0.5292,2.01523 0.4645,0.12148 0.5291,0.3609 0.5291,1.95961 0,1.64483 0.051,1.82122 0.5292,1.82122 0.4788,0 0.5292,-0.17639 0.5292,-1.85208 0,-1.46991 0.082,-1.85208 0.3969,-1.85208 0.3149,0 0.3968,0.38217 0.3968,1.85208 0,1.46991 0.082,1.85208 0.3969,1.85208 0.3121,0 0.3969,0.36748 0.3969,1.71979 0,0.97014 0.1153,1.7198 0.2646,1.7198 0.147,0 0.2645,0.70555 0.2645,1.5875 0,0.88194 -0.1175,1.5875 -0.2645,1.5875 -0.147,0 -0.2646,-0.70556 -0.2646,-1.5875 0,-1.23473 -0.088,-1.5875 -0.3969,-1.5875 -0.3087,0 -0.3969,-0.35278 -0.3969,-1.5875 0,-0.88195 -0.1176,-1.5875 -0.2646,-1.5875 -0.1492,0 -0.2645,0.74965 -0.2645,1.71979 0,0.97014 0.1153,1.71979 0.2645,1.71979 0.1456,0 0.2646,0.65484 0.2646,1.45521 v 1.45521 h -1.8521 -1.852 z m 6.35,8.90553 c 0,-1.34525 -0.075,-1.58741 -0.5292,-1.70615 -0.4655,-0.12172 -0.5292,-0.36089 -0.5292,-1.98692 0,-1.35228 -0.1008,-1.88723 -0.3755,-1.99264 -0.2723,-0.10451 -0.3631,-0.5665 -0.3307,-1.68195 l 0.045,-1.53787 1.5213,-0.0794 1.5214,-0.0793 v 3.71737 3.71737 h 1.0583 1.0584 v -3.70417 -3.70417 h -0.9261 -0.926 v -3.70416 c 0,-2.29306 -0.1008,-3.70417 -0.2646,-3.70417 -0.1455,0 -0.2646,-0.65484 -0.2646,-1.45521 0,-0.80036 0.1191,-1.45521 0.2646,-1.45521 0.1455,0 0.2646,0.65485 0.2646,1.45521 0,0.80037 0.119,1.45521 0.2646,1.45521 0.1511,0 0.2645,0.79375 0.2645,1.85208 0,1.79917 0.019,1.85209 0.6615,1.85209 0.6387,0 0.6615,-0.0601 0.6615,-1.74457 0,-1.52204 -0.068,-1.76221 -0.5292,-1.88294 -0.4465,-0.11676 -0.5292,-0.36089 -0.5292,-1.56273 v -1.42435 h 2.249 2.2489 v 1.31361 c 0,1.04282 -0.109,1.37199 -0.5291,1.59681 -0.4454,0.23837 -0.5292,0.55399 -0.5292,1.99368 0,1.28566 -0.091,1.71049 -0.3686,1.71049 -0.5108,0 -0.6897,0.59428 -0.6897,2.29087 v 1.45384 l 0.9922,-0.0863 0.9921,-0.0863 0.079,1.96092 c 0.085,2.13189 -0.06,2.39326 -1.3353,2.40036 -0.7125,0.004 -0.7276,0.0371 -0.7276,1.59156 0,0.87312 -0.1132,1.5875 -0.2514,1.5875 -0.1383,0 -0.2871,0.68461 -0.3307,1.52135 l -0.079,1.52135 -2.0505,0.0773 -2.0505,0.0773 z m 4.7625,0.0903 v -1.45521 h 0.926 0.9261 v 1.45521 1.45521 h -0.9261 -0.926 z m 2.9104,-8.99584 v -10.45104 h 3.3073 3.3073 v 10.45104 10.45105 h -3.3073 -3.3073 z m 7.5847,10.27466 c -0.097,-0.097 -0.1764,-4.79999 -0.1764,-10.45104 0,-8.95664 0.051,-10.27466 0.3969,-10.27466 0.3461,0 0.3969,1.33762 0.3969,10.45104 0,5.74808 -0.099,10.45105 -0.2205,10.45105 -0.1213,0 -0.2999,-0.0794 -0.3969,-0.17639 z m 2.734,-10.27466 c 0,-10.27465 0.01,-10.45104 0.5292,-10.45104 0.5202,0 0.5292,0.17639 0.5292,10.45104 0,10.27466 -0.01,10.45105 -0.5292,10.45105 -0.5202,0 -0.5292,-0.17639 -0.5292,-10.45105 z m 2.1167,0 c 0,-9.11342 0.051,-10.45104 0.3969,-10.45104 0.3461,0 0.3969,1.33762 0.3969,10.45104 0,9.11343 -0.051,10.45105 -0.3969,10.45105 -0.3461,0 -0.3969,-1.33762 -0.3969,-10.45105 z m 2.1167,0 c 0,-10.27465 0.01,-10.45104 0.5291,-10.45104 0.5203,0 0.5292,0.17639 0.5292,10.45104 0,10.27466 -0.01,10.45105 -0.5292,10.45105 -0.5202,0 -0.5291,-0.17639 -0.5291,-10.45105 z m -29.898,5.29167 c 0,-1.35231 0.085,-1.71979 0.3969,-1.71979 0.3121,0 0.3969,0.36748 0.3969,1.71979 0,1.35232 -0.085,1.71979 -0.3969,1.71979 -0.312,0 -0.3969,-0.36747 -0.3969,-1.71979 z m -8.0135,-1.35487 c -0.1037,-0.10369 -0.1885,-0.98824 -0.1885,-1.96566 0,-1.55461 0.066,-1.79445 0.5291,-1.91551 0.429,-0.11217 0.5292,-0.36089 0.5292,-1.31313 0,-0.64611 0.077,-2.2646 0.1719,-3.59664 l 0.1719,-2.4219 h -0.7011 c -0.6813,0 -0.701,-0.0453 -0.701,-1.60426 v -1.60426 l 0.8599,0.0829 c 0.8245,0.0795 0.8632,0.13464 0.9405,1.33968 0.1072,1.6711 0.5808,1.61716 0.5808,-0.0661 0,-0.99954 0.097,-1.32292 0.3969,-1.32292 0.3041,0 0.3969,0.33635 0.3969,1.4396 0,0.79177 -0.1191,1.51317 -0.2646,1.60311 -0.1455,0.0899 -0.2646,0.9304 -0.2646,1.8677 0,1.32469 -0.087,1.70418 -0.3898,1.70418 -0.3224,0 -0.4025,0.67461 -0.463,3.9026 l -0.073,3.9026 -0.6714,0.0783 c -0.3693,0.0431 -0.7562,-0.007 -0.8599,-0.11025 z m -36.7801,-7.67591 c -0.102,-0.10205 -0.1855,-0.99913 -0.1855,-1.99352 v -1.80799 h -1.3361 -1.3362 l 0.079,-1.52136 0.079,-1.52135 h 1.8521 1.8521 v 3.43596 c 0,2.89191 -0.065,3.44846 -0.4098,3.51488 -0.2253,0.0434 -0.4932,-0.005 -0.5953,-0.10662 z m 52.4666,-1.79509 c 0,-1.6324 0.076,-2.00642 0.4084,-2.00642 0.3375,0 0.395,0.32968 0.3308,1.89706 -0.05,1.22379 -0.1952,1.93588 -0.4085,2.00643 -0.2451,0.0811 -0.3307,-0.40999 -0.3307,-1.89707 z m -21.6959,-0.44097 c 0,-1.59294 0.084,-2.11079 0.3308,-2.02929 0.2167,0.0717 0.3573,0.80859 0.408,2.13872 0.064,1.68543 0.01,2.02929 -0.3308,2.02929 -0.3339,0 -0.408,-0.3881 -0.408,-2.13872 z m 20.6375,-3.02066 c 0,-1.11713 0.092,-1.45521 0.3969,-1.45521 0.3047,0 0.3969,0.33808 0.3969,1.45521 0,1.11713 -0.092,1.45521 -0.3969,1.45521 -0.3047,0 -0.3969,-0.33808 -0.3969,-1.45521 z"
       id="path1"
       sodipodi:nodetypes="ccscsssccccsssscccscccssccsssssssscscccscsssssssssssssscssscccssscsscccccccsscssssssscsccssssssssssscssscsssssssscssssssscssssscsscccssssssssscccccsssssscccssssssssssssssssssssssssssscccccssssccccccccssscccssscccssscccssscccccccccccsssscccsscsssssscccsssssscccsssscssscsssssscccsccccssscccsssscscsssscsssccccssssssssssccccccccssscssssscccssssssscccsssccccccccsssssccccssssssssssssssssssssssssssssssscccccsssscccccccccccssssssssssscccssssscccsssssccccccccccccccccccccccssssssssssssssssssssssssssssssscsscssssssssscssscscccccccssccsssssssssssssss" /></g></svg>
